<svg xmlns="http://www.w3.org/2000/svg" height="512" viewBox="0 0 59 57" width="512" fill="#fff"><path d="M58 1a23 23 0 0 1-12 18 6 6 0 0 1-2-1 1 1 0 0 0-2 2l2 1-6 3a19 19 0 0 0-5 4 10 10 0 0 1-6-1 1 1 0 0 0 0 2 10 10 0 0 0 4 1l-3 5c-3 1-6 2-10 0a1 1 0 0 0 0 2 10 10 0 0 0 4 1h4c-4 4-10 6-15 5l-3-2 1-2c6-15 13-17 22-20l17-7 1-1-2-1a71 71 0 0 1-16 7c-10 3-18 5-24 21v1a6 6 0 0 1-1-1V24a9 9 0 0 0 1 3 1 1 0 0 0 1 0 1 1 0 0 0 1 0 1 1 0 0 0 0-2l-2-4c2-4 4-7 7-9l-1 7a1 1 0 1 0 2 0 16 16 0 0 1 3-9 27 27 0 0 1 9-3 18 18 0 0 0-2 3 1 1 0 0 0 1 1 1 1 0 0 0 1-1l2-3h10l-1 2a1 1 0 0 0 1 1 1 1 0 0 0 1-1l1-2c6 0 12-1 17-6z"/><path d="M11 55H3l4-3a1 1 0 0 0 0-1 56 56 0 0 1 2-10l-2-1a6 6 0 0 1 0-1 30 30 0 0 1-3 4 25 25 0 0 0-4 13l1 1h10a1 1 0 1 0 0-2zM6 45a53 53 0 0 0-1 6l-3 2a24 24 0 0 1 4-8zm41 10H15a1 1 0 1 0 0 2h32a1 1 0 1 0 0-2z"/></svg>